<svg width="100" height="100" viewBox="0 0 100 100" fill="none" xmlns="http://www.w3.org/2000/svg">
<circle cx="50" cy="50" r="46" fill="white" stroke="black" stroke-width="8"/>
<path d="M37.4445 74V29.2H56.7725C59.5885 29.2 62.0845 29.84 64.2605 31.12C66.4792 32.4 68.2285 34.1493 69.5085 36.368C70.8312 38.5867 71.4925 41.0827 71.4925 43.856C71.4925 46.7573 70.8312 49.36 69.5085 51.664C68.2285 53.9253 66.4792 55.7173 64.2605 57.04C62.0845 58.3627 59.5885 59.024 56.7725 59.024H48.3245V74H37.4445ZM48.1325 49.488H55.2365C56.1752 49.488 57.0285 49.2533 57.7965 48.784C58.5645 48.3147 59.1832 47.6747 59.6525 46.864C60.1218 46.0533 60.3565 45.1147 60.3565 44.048C60.3565 42.9387 60.1218 42 59.6525 41.232C59.1832 40.464 58.5645 39.8667 57.7965 39.44C57.0285 39.0133 56.1752 38.8 55.2365 38.8H48.1325V49.488Z" fill="black"/>
</svg>
