<svg width="132" height="30" viewBox="0 0 132 30" fill="none" xmlns="http://www.w3.org/2000/svg">
<path d="M1.74569 23.0909V9.72727H7.51115C8.35115 9.72727 9.09569 9.91818 9.74478 10.3C10.4066 10.6818 10.9284 11.2036 11.3102 11.8655C11.7048 12.5273 11.9021 13.2718 11.9021 14.0991C11.9021 14.9645 11.7048 15.7409 11.3102 16.4282C10.9284 17.1027 10.4066 17.6373 9.74478 18.0318C9.09569 18.4264 8.35115 18.6236 7.51115 18.6236H4.99115V23.0909H1.74569ZM4.93388 15.7791H7.05297C7.33297 15.7791 7.58751 15.7091 7.8166 15.5691C8.04569 15.4291 8.23024 15.2382 8.37024 14.9964C8.51024 14.7545 8.58024 14.4745 8.58024 14.1564C8.58024 13.8255 8.51024 13.5455 8.37024 13.3164C8.23024 13.0873 8.04569 12.9091 7.8166 12.7818C7.58751 12.6545 7.33297 12.5909 7.05297 12.5909H4.93388V15.7791ZM18.705 23.2818C17.585 23.2818 16.6113 23.0591 15.7841 22.6136C14.9568 22.1555 14.3141 21.5382 13.8559 20.7618C13.3977 19.9727 13.1686 19.0755 13.1686 18.07C13.1686 17.2936 13.2959 16.5809 13.5504 15.9318C13.805 15.2827 14.1613 14.7227 14.6195 14.2518C15.0777 13.7682 15.6186 13.3991 16.2423 13.1445C16.8786 12.8773 17.5723 12.7436 18.3232 12.7436C19.0359 12.7436 19.685 12.8709 20.2704 13.1255C20.8686 13.38 21.3841 13.7364 21.8168 14.1945C22.2495 14.6527 22.5804 15.1936 22.8095 15.8173C23.0386 16.4409 23.1404 17.1218 23.115 17.86L23.0959 18.6809H15.0204L14.5813 16.9627H20.6141L20.2895 17.3255V16.9436C20.2641 16.6255 20.1623 16.3455 19.9841 16.1036C19.8186 15.8491 19.5959 15.6518 19.3159 15.5118C19.0359 15.3718 18.7177 15.3018 18.3613 15.3018C17.865 15.3018 17.4386 15.4036 17.0823 15.6073C16.7386 15.7982 16.4777 16.0845 16.2995 16.4664C16.1213 16.8355 16.0323 17.2936 16.0323 17.8409C16.0323 18.4009 16.1468 18.8909 16.3759 19.3109C16.6177 19.7182 16.9613 20.0364 17.4068 20.2655C17.865 20.4945 18.4059 20.6091 19.0295 20.6091C19.4623 20.6091 19.8441 20.5455 20.175 20.4182C20.5186 20.2909 20.8877 20.0745 21.2823 19.7691L22.7141 21.7927C22.3195 22.1364 21.8995 22.4164 21.4541 22.6327C21.0086 22.8491 20.5504 23.0082 20.0795 23.11C19.6213 23.2245 19.1632 23.2818 18.705 23.2818ZM25.9011 23.0909V10.3955H28.9556V23.0909H25.9011ZM24.1065 15.6264V12.9536H30.922V15.6264H24.1065ZM32.6676 23.0909V12.9536H35.5694L35.7031 16.2564L35.1303 15.6264C35.2831 15.0791 35.5312 14.5891 35.8749 14.1564C36.2312 13.7236 36.6449 13.38 37.1158 13.1255C37.5867 12.8709 38.0894 12.7436 38.624 12.7436C38.8531 12.7436 39.0631 12.7627 39.254 12.8009C39.4576 12.8391 39.6421 12.8836 39.8076 12.9345L38.9676 16.3136C38.8276 16.2245 38.6367 16.1545 38.3949 16.1036C38.1658 16.04 37.924 16.0082 37.6694 16.0082C37.3894 16.0082 37.1285 16.0591 36.8867 16.1609C36.6449 16.25 36.4412 16.3836 36.2758 16.5618C36.1103 16.74 35.9767 16.95 35.8749 17.1918C35.7858 17.4336 35.7412 17.7073 35.7412 18.0127V23.0909H32.6676Z" fill="white"/>
<path d="M56.2255 23.0909V9.72727H61.9909C62.8309 9.72727 63.5755 9.91818 64.2246 10.3C64.8864 10.6818 65.4082 11.2036 65.79 11.8655C66.1846 12.5273 66.3818 13.2718 66.3818 14.0991C66.3818 14.9645 66.1846 15.7409 65.79 16.4282C65.4082 17.1027 64.8864 17.6373 64.2246 18.0318C63.5755 18.4264 62.8309 18.6236 61.9909 18.6236H59.4709V23.0909H56.2255ZM59.4137 15.7791H61.5327C61.8127 15.7791 62.0673 15.7091 62.2964 15.5691C62.5255 15.4291 62.71 15.2382 62.85 14.9964C62.99 14.7545 63.06 14.4745 63.06 14.1564C63.06 13.8255 62.99 13.5455 62.85 13.3164C62.71 13.0873 62.5255 12.9091 62.2964 12.7818C62.0673 12.6545 61.8127 12.5909 61.5327 12.5909H59.4137V15.7791ZM68.5412 23.0909V12.9536H71.443L71.5767 16.2564L71.0039 15.6264C71.1567 15.0791 71.4048 14.5891 71.7485 14.1564C72.1048 13.7236 72.5185 13.38 72.9894 13.1255C73.4603 12.8709 73.963 12.7436 74.4976 12.7436C74.7267 12.7436 74.9367 12.7627 75.1276 12.8009C75.3312 12.8391 75.5157 12.8836 75.6812 12.9345L74.8412 16.3136C74.7012 16.2245 74.5103 16.1545 74.2685 16.1036C74.0394 16.04 73.7976 16.0082 73.543 16.0082C73.263 16.0082 73.0021 16.0591 72.7603 16.1609C72.5185 16.25 72.3148 16.3836 72.1494 16.5618C71.9839 16.74 71.8503 16.95 71.7485 17.1918C71.6594 17.4336 71.6148 17.7073 71.6148 18.0127V23.0909H68.5412ZM80.6845 23.3009C79.9336 23.3009 79.2909 23.1418 78.7563 22.8236C78.2345 22.4927 77.8272 22.0218 77.5345 21.4109C77.2545 20.8 77.1145 20.0682 77.1145 19.2155V12.9536H80.1881V18.7955C80.1881 19.2027 80.2518 19.5527 80.3791 19.8455C80.5063 20.1382 80.6972 20.3673 80.9518 20.5327C81.2063 20.6855 81.5118 20.7618 81.8681 20.7618C82.1354 20.7618 82.3772 20.7173 82.5936 20.6282C82.8227 20.5391 83.0136 20.4182 83.1663 20.2655C83.3318 20.1 83.4591 19.9155 83.5481 19.7118C83.6372 19.4955 83.6818 19.26 83.6818 19.0055V12.9536H86.7554V23.0909H83.8727L83.7391 21.01L84.3118 20.7809C84.1591 21.2645 83.9045 21.6973 83.5481 22.0791C83.1918 22.4482 82.7654 22.7473 82.2691 22.9764C81.7727 23.1927 81.2445 23.3009 80.6845 23.3009ZM93.3151 23.3009C92.4369 23.3009 91.6542 23.0782 90.9669 22.6327C90.2924 22.1745 89.7578 21.5509 89.3633 20.7618C88.9687 19.96 88.7714 19.05 88.7714 18.0318C88.7714 17.0136 88.9687 16.11 89.3633 15.3209C89.7578 14.5191 90.2987 13.8891 90.986 13.4309C91.6733 12.9727 92.4624 12.7436 93.3533 12.7436C93.8114 12.7436 94.2505 12.8136 94.6705 12.9536C95.0905 13.0936 95.4724 13.2845 95.816 13.5264C96.1596 13.7682 96.4396 14.0482 96.656 14.3664C96.8724 14.6718 96.9996 14.99 97.0378 15.3209L96.3124 15.4927V8.96364H99.386V23.0909H96.5414L96.3696 20.7809L96.9805 20.8764C96.9424 21.1945 96.8151 21.5 96.5987 21.7927C96.3951 22.0855 96.1278 22.3464 95.7969 22.5755C95.466 22.7918 95.0842 22.9636 94.6514 23.0909C94.2314 23.2309 93.786 23.3009 93.3151 23.3009ZM94.0978 20.7618C94.5687 20.7618 94.976 20.6473 95.3196 20.4182C95.6633 20.1891 95.9242 19.8709 96.1024 19.4636C96.2933 19.0564 96.3887 18.5791 96.3887 18.0318C96.3887 17.4718 96.2933 16.9882 96.1024 16.5809C95.9242 16.1736 95.6633 15.8555 95.3196 15.6264C94.976 15.3973 94.5687 15.2827 94.0978 15.2827C93.6269 15.2827 93.2196 15.3973 92.876 15.6264C92.5451 15.8555 92.2842 16.1736 92.0933 16.5809C91.9024 16.9882 91.8069 17.4718 91.8069 18.0318C91.8069 18.5791 91.9024 19.0564 92.0933 19.4636C92.2842 19.8709 92.5451 20.1891 92.876 20.4182C93.2196 20.6473 93.6269 20.7618 94.0978 20.7618ZM101.969 23.0909V12.9536H104.871L104.966 15.0155L104.355 15.2445C104.495 14.7864 104.743 14.3727 105.1 14.0036C105.469 13.6218 105.908 13.3164 106.417 13.0873C106.926 12.8582 107.461 12.7436 108.021 12.7436C108.784 12.7436 109.427 12.9027 109.949 13.2209C110.471 13.5264 110.865 13.9909 111.133 14.6145C111.4 15.2255 111.533 15.9764 111.533 16.8673V23.0909H108.46V17.1155C108.46 16.7082 108.403 16.3709 108.288 16.1036C108.173 15.8364 107.995 15.6391 107.753 15.5118C107.524 15.3718 107.238 15.3082 106.894 15.3209C106.627 15.3209 106.379 15.3655 106.15 15.4545C105.921 15.5309 105.723 15.6518 105.558 15.8173C105.393 15.97 105.259 16.1482 105.157 16.3518C105.068 16.5555 105.023 16.7782 105.023 17.02V23.0909H103.515C103.159 23.0909 102.853 23.0909 102.599 23.0909C102.344 23.0909 102.134 23.0909 101.969 23.0909ZM114.259 23.0909V12.9536H117.314V23.0909H114.259ZM115.786 10.9491C115.214 10.9491 114.762 10.8155 114.431 10.5482C114.113 10.2682 113.954 9.87364 113.954 9.36455C113.954 8.90636 114.119 8.53091 114.45 8.23818C114.781 7.94546 115.226 7.79909 115.786 7.79909C116.359 7.79909 116.804 7.93909 117.123 8.21909C117.441 8.48637 117.6 8.86818 117.6 9.36455C117.6 9.83546 117.434 10.2173 117.104 10.51C116.785 10.8027 116.346 10.9491 115.786 10.9491ZM123.124 20.1127L121.997 17.8218L126.732 12.9536H130.76L123.124 20.1127ZM120.184 23.0909V8.96364H123.238V23.0909H120.184ZM127.056 23.0909L123.486 18.4709L125.644 16.7909L130.665 23.0909H127.056Z" fill="white"/>
<line x1="48.4091" y1="-2.98032e-08" x2="48.4091" y2="30" stroke="#586F7C" stroke-width="1.36364"/>
</svg>
